<?xml version="1.0" encoding="utf-8"?>
<!-- Generator: Adobe Illustrator 27.7.0, SVG Export Plug-In . SVG Version: 6.00 Build 0)  -->
<svg version="1.1" id="Layer_1" xmlns="http://www.w3.org/2000/svg" xmlns:xlink="http://www.w3.org/1999/xlink" x="0px" y="0px"
	 viewBox="0 0 353.92 357.86" style="enable-background:new 0 0 353.92 357.86;" xml:space="preserve">
<g>
	<path d="M351.09,171.7c0,7.3,0,14.6,0,21.9c-0.22,1.21-0.54,2.41-0.64,3.63c-1.27,16.23-4.61,32.01-10.48,47.2
		c-12.49,32.28-32.44,58.96-60.47,79.46c-25.7,18.81-54.38,30-86.16,33.05c-25.82,2.48-51.14-0.03-75.61-8.72
		c-35.57-12.64-64.47-34.27-86.15-65.25c-14.86-21.23-24.81-44.51-28.93-70.15C1.63,206.44,0.88,200.01,0,193.6c0-7.3,0-14.6,0-21.9
		c0.23-1.44,0.56-2.87,0.68-4.31c1.18-14.59,4.03-28.86,9-42.62c13.01-36,35.1-65.14,66.8-86.82
		c20.88-14.28,43.74-23.85,68.82-27.86c6.4-1.02,12.85-1.77,19.28-2.64c7.31,0,14.63,0,21.94,0c1.27,0.64,2.66,0.57,4.02,0.67
		c14.86,1.12,29.38,4.04,43.37,9.11c35.69,12.93,64.65,34.76,86.27,66.01c14.45,20.89,24.13,43.79,28.22,68.92
		C349.45,158.65,350.2,165.19,351.09,171.7z M175.67,332.25c19.39,0,38.07-3.73,56.11-10.84c1.92-0.76,2.19-1.76,1.85-3.62
		c-6.75-37.2-17.49-73.27-30.66-108.66c-0.76-2.03-1.55-2.24-3.45-1.48c-27.56,11.1-53.69,24.77-76.48,44.01
		c-15.43,13.02-29.08,27.69-38.19,46.05c-1.14,2.29-0.97,3.35,1.11,4.9C112.57,322.42,142.51,332.17,175.67,332.25z M64.07,282.39
		c1.04-1.68,1.95-3.11,2.82-4.57c11.56-19.28,26.1-36.12,43.45-50.28c23.73-19.36,49.52-35.42,79.04-44.74
		c1.9-0.6,2.31-1.27,1.4-3.12c-3.43-6.95-6.77-13.93-10.03-20.96c-0.79-1.7-1.64-1.99-3.41-1.48c-6.35,1.83-12.74,3.59-19.16,5.18
		c-25.42,6.3-51.18,10.53-77.27,12.87c-17.08,1.53-34.19,2.51-51.34,2.44c-3.28-0.01-4.14,1.16-3.98,4.03
		c0.27,5.12,0.19,10.28,0.72,15.37c2.26,22.07,9.01,42.71,20.37,61.81C51.63,267.28,57.33,275.08,64.07,282.39z M28.83,151.82
		c1.59,0,2.84,0.01,4.09,0c18.18-0.17,36.3-1.31,54.37-3.3c26.14-2.89,51.9-7.75,77.38-14.22c2.42-0.61,2.29-1.33,1.26-3.13
		c-16.14-28.11-33.43-55.47-52.7-81.56c-1.46-1.97-2.57-1.83-4.47-0.88c-11.18,5.61-21.6,12.35-31,20.59
		C52.61,91.37,36.16,118.6,28.83,151.82z M176.39,33.06c-11.09,0.06-22.07,1.15-32.94,3.53c-2.73,0.6-3.23,1.07-1.41,3.45
		c4.9,6.44,9.71,12.96,14.34,19.6c13.97,20.02,26.7,40.81,38.46,62.2c0.83,1.51,1.32,2.8,3.78,1.8
		c17.3-7.04,33.78-15.56,48.84-26.61c9.59-7.03,18.32-15.08,25.59-24.58c0.88-1.15,1.58-1.97-0.03-3.33
		c-10.7-9-22.19-16.77-34.9-22.67C218.55,37.4,197.92,33.18,176.39,33.06z M324.88,173.81c0-1.82,0.16-3.66-0.02-5.47
		c-2.92-29.2-13.28-55.42-31.57-78.47c-1.35-1.71-2.05-2.23-3.67-0.16c-9.16,11.67-20.26,21.33-32.3,29.9
		c-14.45,10.29-29.88,18.9-46.29,25.67c-2.91,1.2-3.06,2.36-1.77,4.92c2.87,5.69,5.43,11.54,8.14,17.32
		c1.3,2.77,1.41,6.71,3.86,8.16c2.44,1.44,5.96-0.28,9.01-0.49c29.53-2.02,58.89-0.64,88.05,4.57
		C325.35,181.02,325.34,181.02,324.88,173.81z M230.15,199.93c12.64,34.8,22.57,70.12,29.12,106.35c0.55-0.1,0.78-0.1,0.98-0.19
		c0.31-0.14,0.6-0.33,0.88-0.53c33.19-23.69,53.87-55.44,61.91-95.4c0.59-2.93,0.12-4.04-2.95-4.84
		c-18.09-4.67-36.42-7.62-55.12-7.88C253.42,197.28,241.91,197.79,230.15,199.93z"/>
</g>
</svg>
